<?xml version="1.0" encoding="utf-8"?>
<!-- Generator: Adobe Illustrator 26.0.1, SVG Export Plug-In . SVG Version: 6.00 Build 0)  -->
<svg version="1.1" xmlns="http://www.w3.org/2000/svg" xmlns:xlink="http://www.w3.org/1999/xlink" x="0px" y="0px"
	 viewBox="0 0 595.28 841.89" style="enable-background:new 0 0 595.28 841.89;" xml:space="preserve">
<style type="text/css">
	.st0{display:none;}
	.st1{display:inline;fill:#010202;}
	.st2{fill:#FFFFFF;}
	.st3{fill:#FFFFFF;stroke:#000000;stroke-miterlimit:10;}
</style>
<g id="Laag_4" class="st0">
	<rect y="-8" class="st1" width="610" height="857"/>
</g>
<g id="Laag_2">
	<path class="st2" d="M190.33,338c-0.69,5.1-1.24,12.5-0.33,21.33c0.68,6.6,1.43,13.86,5.17,21.61
		c5.38,11.14,14.29,17.78,20.49,21.39c42.89,25,85.78,50,128.67,75c17.14,12.64,25.83,32.9,22.17,52
		c-3.44,17.9-16.45,28.12-20.17,30.83c-43.22,22.72-86.44,45.44-129.67,68.17c-10.11-5.56-20.22-11.11-30.33-16.67
		c28.17-15.78,56.33-31.56,84.5-47.33c-3.44-1.72-6.89-3.44-10.33-5.17c-28.61,15.61-57.22,31.22-85.83,46.83
		c-8.11-5.78-16.22-11.56-24.33-17.33c44-24.5,88-49,132-73.5c8.67,5.06,17.33,10.11,26,15.17c4.44-2.33,8.89-4.67,13.33-7
		c-40.53-22.53-72.17-40.69-90.22-51.33c-17.71-10.44-32.89-19.78-32.89-19.78c-7.75-4.77-14.15-8.78-18.56-11.56
		c-32,16.89-64,33.78-96,50.67c-1.73-3.22-3.45-6.89-5-11c-3.11-8.25-4.61-15.82-5.33-22c30.67-16.56,61.33-33.11,92-49.67
		c-1.24-6.74-2.88-20.76,2.44-37.11C174,353.48,185.15,342.52,190.33,338z"/>
	<path d="M283,517.33"/>
	<path d="M281.67,515"/>
	<path class="st2" d="M219.89,481.78c8.15,4.96,16.3,9.93,24.44,14.89c-39.85,21.78-79.7,43.56-119.56,65.33
		c-2.63-2.61-5.42-5.64-8.22-9.11c-3.08-3.81-5.65-7.5-7.78-10.89C145.81,521.93,182.85,501.85,219.89,481.78z"/>
	<path class="st2" d="M87.89,504.67c1.65,4.74,3.92,10.2,7.11,16c2.49,4.53,5.09,8.45,7.56,11.78c4.31-2.02,8.85-4.34,13.56-7
		c5.54-3.13,10.58-6.33,15.11-9.44c-2.36-3.09-4.84-6.76-7.22-11c-3.2-5.7-5.42-11.06-7-15.67c-5.53,2.52-11.29,5.36-17.22,8.56
		C95.61,500.13,91.65,502.4,87.89,504.67z"/>
	<path class="st2" d="M466.67,645"/>
	<path class="st3" d="M538.11,509.56"/>
	<path class="st2" d="M416.33,404.69l96.98-53.39c2.03,3.94,4.29,9.34,5.69,16.03c0.98,4.7,1.31,8.94,1.33,12.44
		c-29.26,16-58.52,32-87.78,48c-1.55-3.62-3.82-8.03-7.11-12.67C422.33,410.72,419.11,407.28,416.33,404.69z"/>
	<path class="st3" d="M320.33,346.89"/>
	<path class="st3" d="M348.78,362"/>
	<path class="st2" d="M501.22,319.78c1.87,2.74,3.94,6.23,5.78,10.44c1.88,4.31,3.04,8.27,3.78,11.56
		c-10.07,5.41-20.15,10.81-30.22,16.22c-1.23-3.18-2.56-6.44-4-9.78c-1.82-4.21-3.68-8.21-5.56-12
		C481.07,330.74,491.15,325.26,501.22,319.78z"/>
	<path class="st2" d="M463.67,266.44c3.81,3.34,8.05,7.59,12.22,12.89c2.74,3.49,5.01,6.87,6.89,10
		c-44.74,24.67-89.48,49.33-134.22,74c-9.41-5.48-18.81-10.96-28.22-16.44C368.11,320.07,415.89,293.26,463.67,266.44z"/>
	<path class="st2" d="M377.67,206.89c4.5,1.2,9.95,3.1,15.78,6.22c3.52,1.88,6.55,3.87,9.11,5.78
		c-12.81,7.11-25.63,14.22-38.44,21.33c3.41,1.93,6.81,3.85,10.22,5.78c13.19-6.96,26.37-13.93,39.56-20.89
		c4.12,1.89,8.96,4.53,14,8.22c3.59,2.63,6.61,5.3,9.11,7.78c-57.41,30.44-114.81,60.89-172.22,91.33
		c44.67,25.7,89.33,51.41,134,77.11c17.48,11.5,26.93,31.7,24.22,51.78c-3.62,26.81-27,39.16-29.11,40.22
		c0.47-4.6,1.43-19.69-8.22-34.56c-7.56-11.65-17.7-17.12-22.22-19.22c-40.89-23.63-81.78-47.26-122.67-70.89
		c-4.64-2.47-16.57-9.64-23.11-24.22c-0.74-1.65-4.4-10.05-4.33-21.67c0.07-12.44,4.37-21.82,7-26.56
		c6.4-11.53,15.24-17.78,19.56-20.44C285.81,258.3,331.74,232.59,377.67,206.89z"/>
	<path class="st2" d="M133.33,263.33c-70.87,73.79-62.68,169.15-61.22,183.33c20.02-10.94,40.04-21.89,60.06-32.83
		c0.95-14.89,5.26-51.3,31.5-87.17c24.05-32.88,53.9-48.03,67.67-54c43.78-23.28,87.56-46.56,131.33-69.83
		C279.24,180.27,191.03,203.26,133.33,263.33z M276,230.89c-11.19,1.72-28.55,5.34-48.31,13.72
		c-18.19,7.72-70.96,33.28-101.02,92.73c-6.25,12.35-14.78,32.62-18.67,59.89c-3.67,1.78-7.33,3.56-11,5.33
		c1.87-20.94,8.17-56.75,31.87-92.65c49-74.21,132.2-87.89,147.46-90.13C276.22,223.48,276.11,227.19,276,230.89z"/>
	<path class="st2" d="M519.79,420.57c0.02-0.06,0.03-0.12,0.05-0.18l0.5-0.61l-0.39,0.22c0.02-0.07,0.04-0.15,0.06-0.22
		c-0.1,0.12-0.19,0.23-0.29,0.35l-67.93,37.81c-3.32,11.74-9.32,28.31-20.61,46c-3.48,5.45-17.58,26.86-44.24,47.06
		c-9.54,7.22-15.42,10.31-51.09,29.28c-24.56,13.06-43.13,22.95-50.72,27c29.38,1.7,52.35-3.66,66.22-8
		c55.86-17.5,86.89-57.03,97.5-72.17c13.75-19.62,21.14-38.13,25.17-50.5l0.82-1c2.83-1.07,5.69-2.37,8.54-3.95
		c0.67-0.38,1.33-0.76,1.98-1.16l-0.23,0.34c-16.83,82.19-113.38,161.48-222.22,146.67c-11.07,5.7-22.15,11.41-33.22,17.11
		c21.21,6.66,64.61,16.96,116.67,5c70.2-16.13,110.31-62.2,123.33-77.61c25.95-30.68,36.51-59.36,38.67-65.39
		C519.54,465.21,520.51,437.58,519.79,420.57z"/>
</g>
<g id="Laag_3">
</g>
</svg>
