<svg width="94" height="17" viewBox="0 0 94 17" fill="none" xmlns="http://www.w3.org/2000/svg"><path d="M94 16L93.0663 10.3025L88.599 13.9598L94 16ZM1 16C1.4846 16.1231 1.48446 16.1237 1.48433 16.1242C1.48431 16.1243 1.4842 16.1247 1.48415 16.1249C1.48406 16.1253 1.48402 16.1254 1.48404 16.1253C1.48409 16.1251 1.48438 16.1241 1.48491 16.1221C1.48599 16.1182 1.48808 16.1108 1.49132 16.0999C1.49779 16.0782 1.50882 16.0429 1.52543 15.9949C1.55865 15.8987 1.61418 15.7516 1.70011 15.5607C1.87192 15.179 2.16556 14.6216 2.64614 13.9461C3.60632 12.5965 5.31893 10.7671 8.31313 8.92592C14.3055 5.24111 25.4476 1.5 45.9754 1.5V0.5C25.3392 0.5 13.9937 4.25889 7.78932 8.07408C4.68517 9.98289 2.87216 11.9035 1.83132 13.3664C1.31138 14.0972 0.985664 14.7116 0.788232 15.1502C0.689546 15.3695 0.622991 15.5446 0.580277 15.6682C0.558921 15.73 0.543528 15.7789 0.533061 15.814C0.527828 15.8316 0.523826 15.8456 0.520925 15.8562C0.519475 15.8614 0.5183 15.8658 0.517385 15.8692C0.516927 15.871 0.516534 15.8725 0.516204 15.8737C0.516039 15.8744 0.515837 15.8752 0.515755 15.8755C0.51557 15.8762 0.5154 15.8769 1 16ZM45.9754 1.5C74.1891 1.5 86.1386 8.56586 90.81 12.8853L91.4889 12.151C86.5754 7.60778 74.35 0.5 45.9754 0.5V1.5Z" fill="white"/></svg>