<svg width="261" height="260"
    xmlns="http://www.w3.org/2000/svg">
    <path d="M232.27 0c-15.643 0-28.364 12.721-28.364 28.364 0 4.892 1.244 9.497 3.432 13.52l-46.464 46.464c-6.406-4.987-14.423-7.984-23.15-7.984-8.726 0-16.744 2.997-23.154 7.98L78.317 52.09c1.664-2.813 2.68-6.046 2.68-9.545 0-10.428-8.48-18.909-18.909-18.909-10.428 0-18.909 8.481-18.909 18.91 0 10.428 8.48 18.909 18.91 18.909 3.497 0 6.73-1.017 9.543-2.68l36.254 36.253c-4.983 6.41-7.98 14.427-7.98 23.154 0 8.726 2.997 16.744 7.98 23.15l-59.866 59.87c-5.04-4.571-11.7-7.384-19.023-7.384-15.642 0-28.363 12.721-28.363 28.364 0 15.642 12.72 28.363 28.363 28.363 15.643 0 28.364-12.72 28.364-28.363 0-4.893-1.243-9.497-3.432-13.52l60.646-60.646a37.596 37.596 0 0 0 18.427 7.653v48.03c-13.392 2.259-23.636 13.907-23.636 27.937 0 15.643 12.72 28.364 28.363 28.364 15.643 0 28.364-12.721 28.364-28.364 0-14.025-10.244-25.673-23.637-27.938V155.67a37.596 37.596 0 0 0 18.427-7.653l36.254 36.253c-1.669 2.818-2.685 6.051-2.685 9.55 0 10.428 8.48 18.908 18.909 18.908 10.428 0 18.909-8.48 18.909-18.909 0-10.428-8.48-18.909-18.91-18.909-3.497 0-6.73 1.016-9.544 2.68l-36.253-36.253c4.983-6.41 7.98-14.428 7.98-23.154 0-8.727-2.997-16.744-7.98-23.15l45.69-45.689c5.034 4.572 11.694 7.384 19.017 7.384 15.642 0 28.364-12.72 28.364-28.363C260.634 12.72 247.912 0 232.27 0zM52.634 42.545c0-5.214 4.24-9.454 9.454-9.454s9.455 4.24 9.455 9.454c0 5.215-4.24 9.455-9.455 9.455-5.214 0-9.454-4.24-9.454-9.455zM28.997 241.091c-10.428 0-18.909-8.48-18.909-18.91 0-10.428 8.48-18.908 18.91-18.908 10.428 0 18.908 8.48 18.908 18.909 0 10.428-8.48 18.909-18.909 18.909zm127.637-9.455c0 10.429-8.481 18.91-18.91 18.91-10.428 0-18.909-8.481-18.909-18.91 0-10.428 8.481-18.909 18.91-18.909 10.428 0 18.909 8.481 18.909 18.91zm-18.91-85.09c-15.642 0-28.363-12.722-28.363-28.364 0-15.643 12.72-28.364 28.363-28.364 15.643 0 28.364 12.721 28.364 28.364 0 15.642-12.721 28.363-28.364 28.363zm85.091 47.272c0 5.214-4.24 9.455-9.454 9.455s-9.455-4.24-9.455-9.455c0-5.214 4.24-9.454 9.455-9.454 5.214 0 9.454 4.24 9.454 9.454zm9.455-146.545c-10.428 0-18.91-8.481-18.91-18.91 0-10.428 8.482-18.908 18.91-18.908s18.909 8.48 18.909 18.909c0 10.428-8.48 18.909-18.91 18.909z" fill="#E8E9EC" fill-rule="nonzero">
        <!-- <animate attributeName="opacity" values="0.3;1;1;0.3" dur="2.5s" repeatCount="indefinite" /> -->
    </path>

</svg>

